<?xml version="1.0" standalone="no"?>
<!DOCTYPE svg PUBLIC "-//W3C//DTD SVG 20010904//EN"
 "http://www.w3.org/TR/2001/REC-SVG-20010904/DTD/svg10.dtd">
<svg version="1.0" xmlns="http://www.w3.org/2000/svg"
 width="303.000000pt" height="303.000000pt" viewBox="0 0 303.000000 303.000000"
 preserveAspectRatio="xMidYMid meet">
<metadata>
Created by potrace 1.11, written by Peter Selinger 2001-2013
</metadata>
<g transform="translate(0.000000,303.000000) scale(0.100000,-0.100000)"
fill="#000000" stroke="none">
<path d="M1058 2134 c-3 -2 -18 -6 -34 -8 -53 -7 -118 -25 -188 -51 -86 -33
-277 -126 -320 -158 -6 -4 -47 -30 -91 -58 -124 -80 -327 -237 -382 -296 -45
-47 -32 -64 149 -210 144 -116 350 -249 493 -318 213 -103 340 -136 500 -130
99 3 116 5 205 25 25 6 56 13 70 15 14 3 57 12 95 20 39 9 88 17 110 19 22 3
43 5 48 5 4 1 7 23 7 49 0 48 0 48 -32 46 -55 -2 -129 -15 -210 -35 -99 -25
-99 -24 -47 12 108 76 200 212 230 339 15 66 15 177 0 243 -29 127 -121 261
-227 332 -32 22 -63 43 -68 47 -13 11 242 -57 288 -77 43 -18 48 -16 69 37
l16 37 -56 21 c-51 19 -166 53 -225 66 -107 24 -385 44 -400 28z m173 -173
c100 -21 210 -100 270 -192 194 -303 -19 -701 -376 -701 -256 0 -457 196 -457
447 0 101 28 192 81 266 113 158 284 222 482 180z m-535 -87 c-160 -196 -170
-467 -26 -672 28 -40 56 -72 62 -72 6 0 9 -3 5 -6 -17 -18 -312 169 -490 311
l-108 86 43 35 c24 20 52 43 63 52 11 10 36 28 55 42 19 13 37 27 40 30 22 25
377 249 398 250 2 0 -17 -25 -42 -56z"/>
<path d="M1070 1853 c-31 -4 -140 -46 -140 -53 0 -4 15 -5 32 -4 108 8 176
-107 118 -200 -71 -115 -255 -47 -237 87 l6 40 -20 -29 c-33 -50 -52 -131 -46
-201 17 -216 239 -359 444 -287 157 54 245 188 230 349 -18 187 -196 323 -387
298z"/>
<path d="M2714 2129 c-22 -4 -58 -15 -79 -23 -40 -17 -143 -88 -187 -129 l-28
-26 -20 29 -20 28 30 22 c16 12 64 37 105 56 41 19 75 37 75 40 0 7 -94 -2
-130 -12 -46 -14 -161 -90 -218 -144 l-23 -22 -23 25 c-14 15 -32 24 -42 22
-11 -2 -27 -4 -36 -4 -10 -1 -18 -6 -18 -13 0 -17 60 -107 79 -117 30 -16 78
2 103 38 13 19 28 36 33 37 6 2 22 -15 37 -36 40 -57 96 -55 136 6 12 18 26
34 31 34 4 0 20 -18 35 -40 22 -34 31 -40 62 -40 26 0 41 7 57 26 61 74 115
128 153 154 48 32 129 70 150 70 16 0 19 19 4 21 -5 1 -16 2 -22 3 -24 3 -118
-25 -155 -46 -47 -27 -108 -72 -150 -111 l-31 -29 -13 23 c-6 13 -16 27 -22
30 -17 12 100 82 187 113 19 7 15 19 -7 21 -7 1 -30 -2 -53 -6z"/>
<path d="M1770 1515 l0 -615 29 0 c16 0 31 6 33 13 3 10 2 1162 -1 1205 -1 7
-14 12 -31 12 l-30 0 0 -615z"/>
<path d="M1905 2075 c-43 -42 -24 -107 34 -120 16 -3 35 -13 42 -21 20 -24 -2
-34 -43 -20 -34 12 -39 11 -55 -6 -18 -20 -17 -23 27 -47 45 -25 135 7 140 49
6 44 -24 90 -59 90 -9 0 -25 7 -36 16 -28 21 -3 36 37 22 24 -9 31 -7 43 8 20
27 19 31 -16 43 -51 18 -88 13 -114 -14z"/>
<path d="M1920 1800 l-35 -5 0 -118 0 -117 83 0 c75 0 82 2 82 20 0 31 -3 35
-30 36 -14 1 -35 2 -47 3 -16 1 -23 7 -23 22 0 18 5 20 42 18 33 -3 42 0 48
16 11 29 4 35 -46 35 -37 0 -44 3 -44 20 0 16 7 19 44 18 24 0 48 2 54 6 10 6
5 46 -7 47 -44 3 -93 3 -121 -1z"/>
<path d="M2089 1753 c-5 -34 4 -149 12 -154 5 -3 20 -4 32 -3 12 1 33 3 45 3
40 2 18 25 -23 26 l-40 0 -1 60 c-2 75 -2 75 -14 75 -5 0 -10 -3 -11 -7z"/>
<path d="M2210 1680 l0 -80 61 0 c43 0 59 4 57 12 -3 7 -22 12 -44 13 -32 0
-40 4 -42 21 -2 17 2 21 25 22 46 0 53 2 53 12 0 6 -16 10 -35 10 -23 0 -38 6
-42 15 -8 22 1 27 47 27 28 -1 40 3 40 14 0 11 -14 14 -60 14 l-60 0 0 -80z"/>
<path d="M2365 1734 c-37 -40 -31 -102 11 -124 43 -24 117 -10 100 19 -4 7
-16 6 -37 -1 -25 -8 -33 -7 -49 7 -11 10 -20 29 -20 42 0 31 36 67 58 57 9 -4
39 -7 65 -6 l48 3 -4 -66 c-3 -56 -1 -65 13 -65 15 0 17 10 16 65 -1 61 0 64
23 67 14 2 26 8 28 14 5 16 -118 18 -128 2 -7 -10 -11 -10 -21 0 -22 22 -77
14 -103 -14z"/>
<path d="M2630 1680 c0 -64 3 -80 15 -80 12 0 15 16 15 80 0 64 -3 80 -15 80
-12 0 -15 -16 -15 -80z"/>
<path d="M2705 1735 c-17 -16 -25 -35 -25 -57 0 -41 7 -51 47 -72 84 -43 159
70 88 132 -35 29 -79 29 -110 -3z m103 -55 c4 -37 -4 -49 -40 -55 -56 -10 -80
76 -28 102 34 17 64 -3 68 -47z"/>
<path d="M2860 1680 c0 -63 3 -80 14 -80 11 0 16 15 18 53 l3 52 40 -52 c55
-74 65 -70 65 27 0 64 -3 80 -15 80 -12 0 -15 -13 -15 -56 l0 -57 -42 57 c-58
78 -68 74 -68 -24z"/>
<path d="M1889 1485 c-1 -12 -1 -205 0 -220 1 -13 153 -14 162 -2 4 5 4 18 2
28 -4 15 -15 19 -54 19 -42 0 -49 3 -49 20 0 17 7 20 44 20 35 0 45 4 49 20 7
26 -8 34 -55 31 -32 -1 -38 1 -38 19 0 17 6 20 50 20 48 0 50 1 50 28 l0 28
-80 0 c-47 -1 -80 -5 -81 -11z"/>
<path d="M2358 1444 c-36 -19 -51 -59 -38 -100 20 -59 91 -74 135 -29 65 65
-16 172 -97 129z m80 -36 c21 -18 14 -66 -12 -83 -26 -17 -75 -6 -77 17 0 7
-2 21 -4 31 -5 28 31 60 58 51 12 -3 28 -11 35 -16z"/>
<path d="M2892 1443 c-36 -17 -52 -56 -41 -96 10 -38 36 -56 79 -56 45 0 65
16 66 57 1 30 -2 32 -33 32 -22 0 -33 -5 -33 -15 0 -8 6 -12 14 -9 8 3 17 0
21 -6 9 -15 -12 -39 -33 -35 -9 2 -22 4 -29 4 -10 1 -23 26 -29 57 -5 31 46
60 78 43 16 -8 22 -8 29 2 10 17 9 18 -28 28 -21 6 -39 4 -61 -6z"/>
<path d="M2163 1438 c60 -153 77 -174 97 -123 10 27 50 115 57 128 2 4 -4 7
-14 7 -14 0 -24 -14 -37 -50 -10 -28 -21 -52 -25 -55 -4 -2 -18 20 -30 50 -14
32 -29 55 -38 55 -8 0 -13 -6 -10 -12z"/>
<path d="M2480 1436 c0 -8 10 -13 23 -12 20 1 22 -4 25 -66 2 -52 6 -68 17
-68 12 0 15 15 15 65 0 64 3 70 38 66 6 -1 12 5 12 14 0 12 -13 15 -65 15 -48
0 -65 -4 -65 -14z"/>
<path d="M2628 1386 c-4 -76 -1 -96 15 -96 8 0 13 26 14 80 1 61 -2 80 -12 80
-9 0 -14 -19 -17 -64z"/>
<path d="M2689 1438 c-6 -69 -4 -140 4 -145 15 -9 23 14 21 62 -1 25 -1 45 1
45 3 0 23 -25 45 -56 23 -30 47 -53 53 -51 14 4 18 145 4 154 -14 9 -19 -4
-20 -52 l0 -46 -22 23 c-12 13 -30 36 -39 51 -19 28 -45 36 -47 15z"/>
<path d="M2099 1364 c-12 -15 -12 -16 28 -17 17 -1 29 5 31 14 3 19 -44 21
-59 3z"/>
<path d="M1951 1175 c-89 -30 -94 -188 -7 -229 47 -22 125 -1 126 35 0 4 -7
12 -16 20 -12 10 -20 10 -34 1 -13 -8 -27 -9 -45 -2 -27 10 -32 32 -26 98 2
20 49 34 70 20 15 -9 22 -8 35 5 22 21 20 32 -6 44 -38 18 -61 20 -97 8z"/>
<path d="M2105 1088 c2 -105 7 -120 39 -137 56 -30 128 -13 146 35 6 14 10 63
10 110 l0 84 -30 0 c-33 0 -32 5 -34 -102 -1 -73 -12 -94 -45 -83 -23 7 -24
13 -23 118 l0 67 -33 0 -32 0 2 -92z"/>
<path d="M2350 1060 l0 -120 30 0 c28 0 30 3 30 35 0 22 5 35 13 35 7 0 21
-16 30 -35 16 -33 30 -40 67 -35 23 3 24 7 1 38 -25 35 -26 45 -7 61 37 31 25
109 -20 130 -14 6 -52 11 -84 11 l-60 0 0 -120z m122 34 c-5 -22 -20 -34 -44
-34 -13 0 -18 8 -18 29 0 32 14 42 45 31 12 -5 19 -15 17 -26z"/>
<path d="M2580 1061 c0 -137 -7 -129 108 -123 58 3 62 5 62 28 0 24 -15 29
-77 25 -11 -1 -24 3 -28 9 -12 19 12 34 52 34 32 1 39 5 41 24 4 23 2 23 -58
26 -23 2 -36 8 -38 18 -4 18 20 26 70 23 34 -3 37 -1 36 26 l-1 29 -84 0 -83
0 0 -119z"/>
<path d="M2799 1178 c-1 -2 -3 -56 -4 -120 l-1 -118 58 0 c94 0 134 32 141
110 7 80 -47 130 -142 130 -28 0 -52 -1 -52 -2z m121 -77 c18 -36 12 -79 -14
-97 -37 -24 -51 -8 -52 59 -1 56 0 57 27 57 18 0 32 -7 39 -19z"/>
</g>
</svg>
